<svg id="Layer_1" data-name="Layer 1" xmlns="http://www.w3.org/2000/svg" width="20" height="20" viewBox="0 0 20 20">
  <title>search</title>
  <g>
    <path d="M8.0086,3.5048a4.507,4.507,0,1,1-3.187,1.32A4.4821,4.4821,0,0,1,8.0086,3.5048Z" style="fill: none"/>
    <path d="M3.0506,12.9688a7.0065,7.0065,0,0,0,8.95.8027l4.8632,4.8623a1.2523,1.2523,0,1,0,1.771-1.771L13.77,11.999a7.0092,7.0092,0,1,0-10.7193.97Zm1.771-8.144a4.507,4.507,0,1,1,0,6.374A4.4816,4.4816,0,0,1,4.8216,4.8248Z" style="fill: #0c2340"/>
  </g>
</svg>
